<svg width="20" height="21" viewBox="0 0 20 21" fill="none" xmlns="http://www.w3.org/2000/svg">
<path d="M9.40009 5.30856C10.7601 5.30856 11.7601 5.98856 12.7201 5.98856C13.1601 5.98856 13.5201 5.78856 13.5201 5.30856H14.9201V5.62856C14.9201 8.70856 11.0801 10.5086 11.0801 15.5886V16.3886H7.72009V15.9486C7.72009 10.9886 10.2401 10.7886 12.5601 7.70856L12.5201 7.66856C11.8801 8.02856 11.2001 8.10856 10.5601 8.10856C10.1601 8.10856 9.72009 8.02856 9.28009 7.94856C8.84009 7.86856 8.40009 7.78856 8.08009 7.78856C7.28009 7.78856 6.64009 8.50856 6.64009 9.86856V10.4286H5.08009V5.30856H6.64009V6.54856H6.76009C7.44009 5.62856 8.16009 5.30856 9.40009 5.30856ZM9.40009 4.06856C8.68009 4.06856 8.04009 4.18856 7.48009 4.42856C7.24009 4.22856 6.96009 4.10856 6.64009 4.10856H5.08009C4.40009 4.10856 3.84009 4.66856 3.84009 5.34856V10.4286C3.84009 11.1086 4.40009 11.6686 5.08009 11.6686H6.64009C7.32009 11.6686 7.88009 11.1086 7.88009 10.4286V9.90857C7.88009 9.34857 8.04009 9.14856 8.08009 9.06856C8.28009 9.06856 8.64009 9.14856 9.00009 9.18856H9.08009C9.20009 9.18856 9.28009 9.22856 9.40009 9.22856C7.88009 10.6686 6.48009 12.1486 6.48009 15.9086V16.3486C6.48009 17.0286 7.04009 17.5886 7.72009 17.5886H11.0801C11.7601 17.5886 12.3201 17.0286 12.3201 16.3486V15.5486C12.3201 13.0686 13.3601 11.5086 14.4001 9.94856C15.2801 8.62856 16.1601 7.30856 16.1601 5.58856V5.26856C16.1601 4.58856 15.6001 4.02856 14.9201 4.02856H13.5201C13.0401 4.02856 12.6401 4.26856 12.4401 4.66856C12.2401 4.62856 12.0001 4.54856 11.7201 4.46856C11.0801 4.30856 10.3201 4.06856 9.40009 4.06856Z" fill="#4B3456"/>
</svg>
